<?xml version="1.0" encoding="utf-8"?>
<!-- Generator: Adobe Illustrator 25.3.1, SVG Export Plug-In . SVG Version: 6.00 Build 0)  -->
<svg version="1.1" id="Layer_1" xmlns="http://www.w3.org/2000/svg" xmlns:xlink="http://www.w3.org/1999/xlink" x="0px" y="0px"
	 viewBox="0 0 247.9 283.5" style="enable-background:new 0 0 247.9 283.5;" xml:space="preserve">
<style type="text/css">
	.st0{fill:#FFFFFF;}
</style>
<g id="Layer_2_1_">
	<g id="Layer_1-2">
		<path class="st0" d="M-326,16.8h102.1c4.3,0,4.3,0,4.3,4.2c0,60.3,0,120.6,0,180.9c0,13.9-8.4,24.6-21.3,27.2
			c-1.7,0.3-3.4,0.4-5.1,0.4c-53,0-105.9,0-158.9,0c-16.3,0-27.5-11.2-27.5-27.6c0-57.9,0-115.8,0-173.8c0-2.6,0.2-5.2,0-7.8
			c-0.2-2.9,0.9-3.7,3.7-3.7c22.4,0.1,44.7,0.1,67.1,0.1L-326,16.8z M-263.8,123.1L-263.8,123.1v-59c0-1.2,0-2.4-0.1-3.6
			c-0.3-4.6-4.1-8.3-8.8-8.3c-4.5-0.1-8.4,3.3-8.8,7.8c-0.2,1.5-0.3,3-0.3,4.5c0,39.1,0,78.2,0,117.3c0,1.7,0.1,3.5,0.4,5.2
			c0.8,4.5,4.9,7.5,9.4,6.9c5.1-0.6,8.1-4.2,8.1-10.3C-263.8,163.5-263.8,143.3-263.8,123.1L-263.8,123.1z M-388.2,123.3
			L-388.2,123.3c0,19.9,0,39.8,0,59.6c0,1.6,0.1,3.2,0.5,4.8c1,4,4.8,6.7,9,6.4c4-0.1,7.4-3.2,8-7.2c0.3-1.8,0.4-3.6,0.4-5.5
			c0-39,0-78,0-117c0-1.6-0.1-3.2-0.3-4.8c-0.7-4.7-5-7.9-9.7-7.3c-0.2,0-0.3,0.1-0.5,0.1c-4.6,0.8-7.4,4.4-7.4,9.9
			C-388.3,82.7-388.3,103-388.2,123.3L-388.2,123.3z M-335,122.8V138c0,15.4,0,30.7,0,46c0,5.2,2.6,8.8,6.9,9.8
			c6.2,1.5,11.1-2.8,11.2-9.9c0-25.8,0-51.6,0-77.5c0-14.7,0-29.4,0-44.1c0-5.9-3.6-9.9-8.8-10c-5.2-0.1-9.2,4-9.2,9.9
			C-335.1,82.4-335.1,102.6-335,122.8L-335,122.8z"/>
		<path class="st0" d="M-326.4-1.2h-111.5c-1.5,0-3,0-4.5-0.1c-4.2-0.2-7.5-3.7-7.5-7.9c-0.1-5.9-0.1-11.9-0.1-17.8s3.3-9.3,9.5-9.4
			c16.6,0,33.3,0,49.9,0c4.3,0,8.6-0.1,13,0c1.7,0.2,3.4-0.8,4-2.5c1.2-2.7,2.6-5.5,4.1-8.1c2.6-4.6,6.4-7,11.9-7
			c21.1,0.1,42.2,0.1,63.2,0c5.5,0,9.3,2.4,11.9,7c1.4,2.4,2.7,4.9,3.8,7.5c1,2.4,2.4,3.1,5,3.1c20.3-0.1,40.6-0.1,61,0
			c1.6-0.1,3.2,0.1,4.8,0.5c3.6,0.9,6.1,4.2,5.9,7.9c0.1,6.2,0.1,12.3,0,18.5c-0.1,4.7-3.1,7.9-7.8,8.2c-1.3,0.1-2.6,0.1-3.9,0.1
			L-326.4-1.2z"/>
	</g>
</g>
</svg>
