<svg xmlns="http://www.w3.org/2000/svg" viewBox="0 0 139.21 139.07"><g id="Layer_2" data-name="Layer 2"><g id="Layer_1-2" data-name="Layer 1"><g id="qFywf2.tif"><path d="M0,24.72c1-6,5-10.1,9.4-13.7A64.13,64.13,0,0,1,28.1.42,4.71,4.71,0,0,1,29.8,0a2.47,2.47,0,0,1,2.4,1c3,4,6,8,8.9,12.1,4.5,6.3,8.9,12.7,13.4,19a5.28,5.28,0,0,1-.7,6.5c-3.2,2.8-6.4,5.6-9.7,8.3a22.84,22.84,0,0,0-2.2,2.2,6,6,0,0,0-1.1,7c1.3,2.9,3,5.7,4.6,8.5a78.86,78.86,0,0,0,13.1,17.3,76.32,76.32,0,0,0,14.4,10.8c3,1.8,6.1,3.5,9.2,5.2a6.82,6.82,0,0,0,8.5-1.4c2.2-2.5,4.3-5.1,6.5-7.6,1.1-1.3,2.3-2.5,3.4-3.9,1.3-1.6,4.6-1.8,6.1-.8,4.2,2.9,8.5,5.7,12.6,8.7,5.9,4.2,11.7,8.4,17.5,12.7l1.5,1.2a2.28,2.28,0,0,1,.9,2.6,29.21,29.21,0,0,1-1.9,4.9,62.16,62.16,0,0,1-11.2,17.5,22.73,22.73,0,0,1-10,6.7,21.09,21.09,0,0,1-7.5.4c-14.4-1-27.6-5.8-40.1-12.7A141.6,141.6,0,0,1,29.2,94a134.37,134.37,0,0,1-18.9-28.3,100.07,100.07,0,0,1-8.8-25.5c-.5-2.8-.8-5.7-1.1-8.6,0-.3-.1-.6-.1-.8A40.88,40.88,0,0,1,0,24.72Z"/></g></g></g></svg>