<svg xmlns="http://www.w3.org/2000/svg" viewBox="0 0 138.28 123.44"><g id="Layer_2" data-name="Layer 2"><g id="Layer_1-2" data-name="Layer 1"><path id="Path_16" data-name="Path 16" d="M32.24,18.26a7.47,7.47,0,0,1,7.69-6h10.9A4.25,4.25,0,0,0,55,15.77H83.32a4.26,4.26,0,0,0,4.18-3.52H98.4a7.47,7.47,0,0,1,7.68,6c.89,3.41,5.72,23.27,7.28,29.7h9c-.51-2.16-6.75-27.78-7.81-31.89A16.15,16.15,0,0,0,98.4,3.52H87.5A4.25,4.25,0,0,0,83.32,0H55a4.24,4.24,0,0,0-4.17,3.52H39.93A16.14,16.14,0,0,0,23.8,16.07C22.73,20.18,16.49,45.8,16,48h9C26.53,41.53,31.36,21.67,32.24,18.26Z"/><path d="M130.52,53H7.79A7.79,7.79,0,0,0,0,60.79H0a7.78,7.78,0,0,0,7.79,7.78h.07l7.86,48.29a7.83,7.83,0,0,0,7.73,6.58h91.39a7.84,7.84,0,0,0,7.73-6.58l7.85-48.29h.08a7.79,7.79,0,0,0,0-15.57ZM46,111.66a3.73,3.73,0,1,1-7.46,0V72.06a3.71,3.71,0,0,1,3.73-3.69h0A3.71,3.71,0,0,1,46,72.09Zm17.94,0a3.73,3.73,0,0,1-7.46,0V72.06a3.71,3.71,0,0,1,3.73-3.69h0a3.71,3.71,0,0,1,3.69,3.72Zm17.94,0a3.73,3.73,0,1,1-7.45,0V72.06a3.71,3.71,0,0,1,3.72-3.69h0a3.71,3.71,0,0,1,3.69,3.72Zm17.94,0a3.73,3.73,0,1,1-7.45,0V72.06a3.71,3.71,0,0,1,3.73-3.69h0a3.71,3.71,0,0,1,3.69,3.72Z"/></g></g></svg>